# xmcd
#
# Track frame offsets: 
#        150
#        6106
#        16001
#        29267
#        43519
#        56105
#        76616
#        92297
#        102672
#        115666
#        127707
#        141381
#        162470
#        176994
#        199409
#        208763
#        224342
#        239104
#        251860
#        262745
#        270841
#        283495
#
# Disc length: 3937 seconds
#
# Revision: 0
# Processed by: cddbd v1.5.2PL0 Copyright (c) Steve Scherf et al.
# Submitted via: ExactAudioCopy v0.99pb5
#
DISCID=3d0f5f16
DTITLE=Elvis Presley  - FTD 37 - Polk Salad Annie, 02-15-1970  
DYEAR=1900
DGENRE=
TTITLE0=I Got A Woman
TTITLE1=Long Tall Sally
TTITLE2=Don't Cry Daddy
TTITLE3=Hound Dog
TTITLE4=Love Me Tender
TTITLE5=Kentucky Rain
TTITLE6=Let It Be Me
TTITLE7=I Can't Stop Loving You
TTITLE8=Walk A Mile In My Shoes
TTITLE9=In The Ghetto
TTITLE10=Sweet Caroline
TTITLE11=Polk Salad Annie
TTITLE12=Introductions
TTITLE13=Suspicious Minds
TTITLE14=Can't Help Falling In Love
TTITLE15=Release Me
TTITLE16=See See Rider
TTITLE17=Proud Mary
TTITLE18=The Wonder Of You
TTITLE19=Release Me
TTITLE20=See See Rider
TTITLE21=The Wonder Of You
EXTD=
EXTT0=
EXTT1=
EXTT2=
EXTT3=
EXTT4=
EXTT5=
EXTT6=
EXTT7=
EXTT8=
EXTT9=
EXTT10=
EXTT11=
EXTT12=
EXTT13=
EXTT14=
EXTT15=
EXTT16=
EXTT17=
EXTT18=
EXTT19=
EXTT20=
EXTT21=
PLAYORDER=
